<svg xmlns="http://www.w3.org/2000/svg" width="48" height="48" viewBox="0 0 48 48"><path fill="#fff" d="M17-8a2.4 2.4 0 0 1 1.4.5 2.3 2.3 0 0 1 .5 2.2 1.2 1.2 0 0 0 .2 1l.7.2h1.1a2 2 0 0 1 1.4.5 2 2 0 0 1 .6 1.5 2.5 2.5 0 0 1-.8 1.8 2.5 2.5 0 0 1-1.9.9 2.2 2.2 0 0 1-1.4-.6.9.9 0 0 0-.7-.3.9.9 0 0 0-.7.3l-4.9 5.2a.9.9 0 0 0-.3.7 1.1 1.1 0 0 0 .3.7 2 2 0 0 1 .6 1.5 2.5 2.5 0 0 1-.8 1.8 2.5 2.5 0 0 1-1.9.9 2.2 2.2 0 0 1-1.4-.5 2.1 2.1 0 0 1-.5-2.2 1 1 0 0 0-.3-1 .9.9 0 0 0-.7-.3H6.4A2.2 2.2 0 0 1 5 6.5 2 2 0 0 1 4.4 5a2.9 2.9 0 0 1 .8-1.9 2.8 2.8 0 0 1 2-.8 2.4 2.4 0 0 1 1.4.5.7.7 0 0 0 .6.3h.1a1.1 1.1 0 0 0 .7-.3l4.9-5.2a.6.6 0 0 0 .2-.7.9.9 0 0 0-.3-.7 2 2 0 0 1-.6-1.5 3 3 0 0 1 .8-1.8 2.7 2.7 0 0 1 2-.9m0-1a3.6 3.6 0 0 0-2.7 1.2 3.3 3.3 0 0 0-.2 4.7L9.2 2.1a2.6 2.6 0 0 0-2-.8 3.6 3.6 0 0 0-2.7 1.2 3.3 3.3 0 0 0-.2 4.7 2.8 2.8 0 0 0 2.1.8 2 2 0 0 0 1.1-.2 3.3 3.3 0 0 0 .8 3.2 3.2 3.2 0 0 0 2.1.8 3.9 3.9 0 0 0 2.7-1.2 3.3 3.3 0 0 0 .1-4.7L18.1.7a2.8 2.8 0 0 0 2.1.8A3.9 3.9 0 0 0 22.9.3a3.3 3.3 0 0 0 .1-4.7 2.8 2.8 0 0 0-2.1-.8h-1.1a3.2 3.2 0 0 0-.7-3.1A2.9 2.9 0 0 0 17-9zm0 49a2.4 2.4 0 0 1 1.4.5 2.3 2.3 0 0 1 .5 2.2 1.2 1.2 0 0 0 .2 1l.7.2h1.1a1.9 1.9 0 0 1 2 2 2.5 2.5 0 0 1-.8 1.8 2.5 2.5 0 0 1-1.9.9 2.2 2.2 0 0 1-1.4-.5 1 1 0 0 0-1.4 0l-4.9 5.2a.9.9 0 0 0-.3.7 1.1 1.1 0 0 0 .3.7 2.3 2.3 0 0 1-.2 3.3 2.5 2.5 0 0 1-1.9.9 2.2 2.2 0 0 1-1.4-.6 2.1 2.1 0 0 1-.5-2.2 1 1 0 0 0-.3-1 .9.9 0 0 0-.7-.3H6.4a2.2 2.2 0 0 1-1.4-.3 2 2 0 0 1-.6-1.5 2.9 2.9 0 0 1 .8-1.9 2.8 2.8 0 0 1 2-.8 2.4 2.4 0 0 1 1.4.5.7.7 0 0 0 .6.3 1.1 1.1 0 0 0 .8-.3l4.9-5.2a.6.6 0 0 0 .2-.7.9.9 0 0 0-.3-.7 2.4 2.4 0 0 1 .2-3.3 2.7 2.7 0 0 1 2-.9m0-1a3.6 3.6 0 0 0-2.7 1.2 3.3 3.3 0 0 0-.2 4.7l-4.9 5.2a2.6 2.6 0 0 0-2-.8 3.6 3.6 0 0 0-2.7 1.2 3.3 3.3 0 0 0-.2 4.7 2.8 2.8 0 0 0 2.1.8 2 2 0 0 0 1.1-.2 3.3 3.3 0 0 0 .8 3.2 3.2 3.2 0 0 0 2.1.8 3.9 3.9 0 0 0 2.7-1.2 3.3 3.3 0 0 0 .1-4.7l4.9-5.2a2.8 2.8 0 0 0 2.1.8 3.9 3.9 0 0 0 2.7-1.2 3.3 3.3 0 0 0 .1-4.7 2.8 2.8 0 0 0-2.1-.8h-1.1a3.2 3.2 0 0 0-.7-3.1A2.9 2.9 0 0 0 17 39zm21-24a2.4 2.4 0 0 1 1.4.5 2.3 2.3 0 0 1 .5 2.2 1.2 1.2 0 0 0 .2 1l.7.2h1.1a1.9 1.9 0 0 1 2 2 2.5 2.5 0 0 1-.8 1.8 2.5 2.5 0 0 1-1.9.9 2.2 2.2 0 0 1-1.4-.5.9.9 0 0 0-.7-.3.9.9 0 0 0-.7.3l-4.9 5.2a.9.9 0 0 0-.3.7 1.1 1.1 0 0 0 .3.7 2 2 0 0 1 .6 1.5 2.5 2.5 0 0 1-.8 1.8 2.5 2.5 0 0 1-1.9.9 2.2 2.2 0 0 1-1.4-.5 2.1 2.1 0 0 1-.5-2.2 1 1 0 0 0-.3-1 .9.9 0 0 0-.7-.3h-1.1a2.2 2.2 0 0 1-1.4-.5 2 2 0 0 1-.6-1.5 2.9 2.9 0 0 1 .8-1.9 2.8 2.8 0 0 1 2-.8 2.4 2.4 0 0 1 1.4.5.7.7 0 0 0 .6.3h.1a1.1 1.1 0 0 0 .7-.3l4.9-5.2a.6.6 0 0 0 .2-.7.9.9 0 0 0-.3-.7 2 2 0 0 1-.6-1.5 3 3 0 0 1 .8-1.8 2.7 2.7 0 0 1 2-.9m0-1a3.6 3.6 0 0 0-2.7 1.2 3.3 3.3 0 0 0-.2 4.7L30.2 25a2.6 2.6 0 0 0-2-.8 3.6 3.6 0 0 0-2.7 1.2 3.3 3.3 0 0 0-.2 4.7 2.8 2.8 0 0 0 2.1.8 2 2 0 0 0 1.1-.2 3.3 3.3 0 0 0 .8 3.2 3.2 3.2 0 0 0 2.1.8 3.9 3.9 0 0 0 2.7-1.2 3.3 3.3 0 0 0 .1-4.7l4.9-5.2a2.8 2.8 0 0 0 2.1.8 3.9 3.9 0 0 0 2.7-1.2 3.3 3.3 0 0 0 .1-4.7 2.8 2.8 0 0 0-2.1-.8h-1.1a3.2 3.2 0 0 0-.7-3.1A2.9 2.9 0 0 0 38 14z"/></svg>