<svg xmlns="http://www.w3.org/2000/svg" width="48" height="32" viewBox="0 0 48 32"><path d="M8.4 2.8v2c3.2 0 5.8 2.2 5.8 5a2 2 0 0 0 .6 1.4 1.8 1.8 0 0 0 1.4.6h15.7a2 2 0 0 0 2-2c0-2.7 2.6-5 5.8-5a6.3 6.3 0 0 1 4.2 1.6 4.4 4.4 0 0 1 1.6 3.6 4.7 4.7 0 0 1-2.8 4.2 2 2 0 0 0-1.1 1.7 1.9 1.9 0 0 0 1.1 1.8 5.2 5.2 0 0 1 2.8 4.3c0 2.7-2.7 5-5.9 5s-5.8-2.3-5.8-5.1a2 2 0 0 0-.6-1.4 1.8 1.8 0 0 0-1.4-.6H16.1a2 2 0 0 0-2 2c0 2.8-2.6 5-5.8 5a6.3 6.3 0 0 1-4.2-1.6 4.3 4.3 0 0 1-1.6-3.4 4.9 4.9 0 0 1 2.8-4.3 2 2 0 0 0 1.1-1.7A2 2 0 0 0 5.3 14a4.9 4.9 0 0 1-2.8-4.3c0-2.7 2.7-4.9 5.9-4.9v-2m0 0C4 2.8.5 5.9.5 9.7a7.1 7.1 0 0 0 3.9 6.1 6.8 6.8 0 0 0-3.9 6c0 3.8 3.4 7 7.8 7 4.3 0 7.8-3.1 7.8-7h15.7c0 3.9 3.5 7 7.8 7.1 4.4 0 7.9-3.2 7.9-7a6.8 6.8 0 0 0-3.9-6 7.1 7.1 0 0 0 3.9-6c0-3.9-3.4-7.1-7.8-7.1-4.3 0-7.8 3.1-7.8 7H16.2c0-3.9-3.5-7-7.8-7z"/></svg>