<svg xmlns="http://www.w3.org/2000/svg" width="196" height="196" viewBox="0 0 196 196"><path fill="#fff" stroke="#000" stroke-linecap="round" stroke-linejoin="round" stroke-width="4.6" d="M36.6 74S14 29.2 28.3 17.9C50.3.6 70.7 39 70.7 39"/><path fill="#fff" stroke="#000" stroke-linecap="round" stroke-linejoin="round" stroke-width="4.6" d="M53.9 19.4S25.8 59.5 15.6 55.3s.7-28 .7-28c5.9-12.4 25.8-20.2 37.6-7.9zm104.4 51.9s32.6-40.8 9.3-66.7c-8.1-9.1-41 33.6-41 33.6"/><ellipse cx="97.8" cy="169.1" fill="#fff" stroke="#000" stroke-linecap="round" stroke-linejoin="round" stroke-width="4.6" rx="25.3" ry="11.1"/><path fill="#bf3e0f" stroke="#000" stroke-linecap="round" stroke-linejoin="round" stroke-width="4.6" d="M170.3 148.1a9 9 0 0 0-7.3 4c-15.1-7.3-38.9-12.1-65.8-12.1s-49.3 4.5-64.4 11.5a9.1 9.1 0 0 0-6.9-3.4c-5.4 0-9.7 5.4-9.7 12.1a14.2 14.2 0 0 0 .4 3.6c1.2 4.5 4.5 7.9 8.4 8.4a14.6 14.6 0 0 0-1.9 12.3c1.4 4.6 5 7.9 9.2 7.9S42 187 42 180.3a14.8 14.8 0 0 0-.1-2.1c14.8-5.1 34.6-10.6 56.5-10.6s41.2 5.4 55.9 10.4a17.7 17.7 0 0 0-.1 2.3c0 6.7 4.3 12.1 9.7 12.1s8.7-4.1 9.6-9.6a21.1 21.1 0 0 0 .2-2.5 13.5 13.5 0 0 0-2.5-8.1c3.4-.4 6.2-2.9 7.7-6.4a14.7 14.7 0 0 0 1.1-5.6c0-6.7-4.3-12.1-9.7-12.1z"/><path fill="#fff" stroke="#000" stroke-linecap="round" stroke-linejoin="round" stroke-width="4.6" d="M157.4 99.6c1.8-4.8 4.1-12.3 4.1-17.5 0-28.5-27.2-44-63.7-44s-61.2 15.5-61.2 44c0 5.2 2.3 12.7 4.2 17.5-10.9.2-21.1 6.8-21.1 16.9 0 7.9 5.6 15.6 16.7 15.6a21.2 21.2 0 0 0 10.3-2.6c-.8 2.2-1.2.7-1.2 3 0 30.8 30.5 35.4 49.9 23.6a5.3 5.3 0 0 1 4.9-.1c22.8 11.9 49.8 7.4 49.8-23.5 0-2.3-.4-.8-1.2-3a21.2 21.2 0 0 0 10.3 2.6c11.2 0 16.7-7.7 16.7-15.6.1-10.4-7.7-16.7-18.5-16.9zM46.6 129.2c6.9-11.5-9.2-17.3-13.8-12.7m116 12.6c-6.9-11.5 9.2-17.3 13.8-12.7"/><path stroke="#000" stroke-linecap="round" stroke-linejoin="round" stroke-width="4.6" d="M112.2 136c0 3.5-6.4 10.9-14.4 10.9s-14.4-7.4-14.4-10.9 6.5-5.2 14.4-5.2 14.4 1.7 14.4 5.2z"/><ellipse cx="70.7" cy="93.4" fill="#fff" stroke="#000" stroke-linecap="round" stroke-linejoin="round" stroke-width="4.6" rx="8" ry="14.4"/><ellipse cx="124.8" cy="93.4" fill="#fff" stroke="#000" stroke-linecap="round" stroke-linejoin="round" stroke-width="4.6" rx="8" ry="14.4"/><ellipse cx="73.7" cy="98.9" stroke="#000" stroke-linecap="round" stroke-linejoin="round" stroke-width="4.6" rx="3" ry="5.5"/><ellipse cx="122" cy="98.9" stroke="#000" stroke-linecap="round" stroke-linejoin="round" stroke-width="4.6" rx="3" ry="5.5"/><path fill="#fff" stroke="#000" stroke-linecap="round" stroke-linejoin="round" stroke-width="4.6" d="M56.8 70.9c5.6-8.5 11.8-9.1 19.6-2.9m59.9 2.9c-5.5-8.5-11.7-9.1-19.5-2.9"/></svg>